<svg width="24" height="24" viewBox="0 0 24 24" fill="none" xmlns="http://www.w3.org/2000/svg">
<path d="M22.1828 11.8358L12.5289 2.18895C12.4594 2.1193 12.3768 2.06404 12.2859 2.02634C12.195 1.98864 12.0976 1.96924 11.9992 1.96924C11.9008 1.96924 11.8034 1.98864 11.7125 2.02634C11.6216 2.06404 11.539 2.1193 11.4695 2.18895L1.81562 11.8358C1.53437 12.1171 1.375 12.4991 1.375 12.8975C1.375 13.7249 2.04766 14.3975 2.875 14.3975H3.89219V21.2811C3.89219 21.696 4.22734 22.0311 4.64219 22.0311H10.4992V16.7811H13.1242V22.0311H19.3562C19.7711 22.0311 20.1062 21.696 20.1062 21.2811V14.3975H21.1234C21.5219 14.3975 21.9039 14.2405 22.1851 13.9569C22.7687 13.371 22.7687 12.4218 22.1828 11.8358Z" fill="#00693B"/>
</svg>
