<svg width="24" height="24" viewBox="0 0 24 24" fill="none" xmlns="http://www.w3.org/2000/svg">
<path d="M17.5187 6.4182H16.4306V4.1781C16.4306 4.03018 16.3719 3.88832 16.2673 3.78372C16.1627 3.67912 16.0208 3.62036 15.8729 3.62036H8.05541C7.97915 3.61535 7.90267 3.62606 7.83072 3.65184C7.75877 3.67762 7.69289 3.7179 7.63716 3.7702C7.58144 3.8225 7.53705 3.8857 7.50676 3.95586C7.47647 4.02603 7.46093 4.10167 7.46109 4.1781V6.4182H6.37305V4.1781C6.37546 3.7335 6.55378 3.30793 6.86902 2.9944C7.18426 2.68087 7.6108 2.50488 8.05541 2.50488H15.8729C16.3111 2.51441 16.7284 2.6946 17.0357 3.00711C17.3431 3.31962 17.5164 3.73976 17.5187 4.1781V6.4182Z" fill="#00693B"/>
<path d="M7.85314 10.2642H6.17078C6.01929 10.2642 5.89648 10.387 5.89648 10.5385V14.4609C5.89648 14.6124 6.01929 14.7352 6.17078 14.7352H7.85314C8.00463 14.7352 8.12744 14.6124 8.12744 14.4609V10.5385C8.12744 10.387 8.00463 10.2642 7.85314 10.2642Z" fill="#00693B"/>
<path d="M19.3464 13.4812V14.3315C19.3464 14.5224 19.3088 14.7115 19.2357 14.8879C19.1626 15.0642 19.0555 15.2245 18.9206 15.3595C18.7856 15.4945 18.6253 15.6016 18.4489 15.6746C18.2725 15.7477 18.0835 15.7853 17.8926 15.7853H16.2925C15.9069 15.7853 15.5372 15.6321 15.2645 15.3595C14.9919 15.0869 14.8387 14.7171 14.8387 14.3315V13.5452H9.28877V14.3315C9.28877 14.7171 9.1356 15.0869 8.86297 15.3595C8.59033 15.6321 8.22056 15.7853 7.83499 15.7853H6.23492C5.84935 15.7853 5.47958 15.6321 5.20694 15.3595C4.93431 15.0869 4.78114 14.7171 4.78114 14.3315V13.4995C3.66931 13.3795 2.64385 12.844 1.91016 12L1.91016 19.1562C1.91015 19.7488 2.14491 20.3172 2.56303 20.737C2.98115 21.1569 3.54859 21.3939 4.14111 21.3963H19.7852C20.3793 21.3963 20.9491 21.1603 21.3692 20.7402C21.7893 20.3201 22.0253 19.7504 22.0253 19.1562V12C21.332 12.7905 20.3845 13.3144 19.3464 13.4812Z" fill="#00693B"/>
<path d="M19.7854 5.23529H4.14128C3.84598 5.23527 3.55362 5.29387 3.28115 5.4077C3.00867 5.52153 2.76151 5.68831 2.55398 5.89839C2.34645 6.10847 2.1827 6.35766 2.07221 6.6315C1.96172 6.90535 1.90669 7.1984 1.91032 7.49368V9.14861C1.91125 9.95227 2.20215 10.7286 2.72958 11.335C3.257 11.9414 3.98553 12.337 4.78131 12.4493V10.6207C4.77889 10.4282 4.8147 10.2372 4.88668 10.0587C4.95865 9.88022 5.06535 9.71779 5.20059 9.58085C5.33583 9.44392 5.49691 9.33519 5.67449 9.26099C5.85208 9.18679 6.04263 9.14859 6.23509 9.14861H7.79859C7.99179 9.14374 8.18402 9.17745 8.36404 9.24775C8.54406 9.31806 8.70826 9.42355 8.84703 9.55806C8.9858 9.69258 9.09635 9.85341 9.17223 10.0312C9.24811 10.2089 9.28778 10.4 9.28894 10.5932V12.495H14.8755V10.5932C14.8779 10.2093 15.0321 9.84183 15.3045 9.57117C15.5769 9.30051 15.9453 9.1486 16.3293 9.14861H17.8927C18.2767 9.1486 18.6451 9.30051 18.9175 9.57117C19.1899 9.84183 19.3441 10.2093 19.3465 10.5932V12.4219C20.1142 12.2794 20.8082 11.8736 21.3089 11.2744C21.8095 10.6753 22.0856 9.92027 22.0895 9.13946V7.49368C22.0921 7.1925 22.0339 6.8939 21.9184 6.61573C21.803 6.33755 21.6326 6.08552 21.4175 5.87469C21.2024 5.66387 20.947 5.49858 20.6666 5.38872C20.3862 5.27886 20.0865 5.22668 19.7854 5.23529Z" fill="#00693B"/>
<path d="M17.9117 10.2642H16.2294C16.0779 10.2642 15.9551 10.387 15.9551 10.5385V14.4609C15.9551 14.6124 16.0779 14.7352 16.2294 14.7352H17.9117C18.0632 14.7352 18.186 14.6124 18.186 14.4609V10.5385C18.186 10.387 18.0632 10.2642 17.9117 10.2642Z" fill="#00693B"/>
</svg>
