<svg width="24" height="24" viewBox="0 0 24 24" fill="none" xmlns="http://www.w3.org/2000/svg">
<path d="M13.6971 1.5H6.75C6.05381 1.5 5.38613 1.77656 4.89384 2.26884C4.40156 2.76113 4.125 3.42881 4.125 4.125V19.875C4.125 20.5712 4.40156 21.2389 4.89384 21.7312C5.38613 22.2234 6.05381 22.5 6.75 22.5H17.25C17.9462 22.5 18.6139 22.2234 19.1062 21.7312C19.5984 21.2389 19.875 20.5712 19.875 19.875V7.67794C19.8749 7.32987 19.7366 6.99608 19.4904 6.75L14.625 1.88456C14.3789 1.6384 14.0451 1.50007 13.6971 1.5V1.5ZM13.9688 6.09375V3.46875L17.9062 7.40625H15.2812C14.9332 7.40625 14.5993 7.26797 14.3532 7.02183C14.107 6.77569 13.9688 6.44185 13.9688 6.09375ZM10.0312 8.71875V9.55087L10.7518 9.13481C10.8265 9.09104 10.9091 9.06247 10.9948 9.05075C11.0806 9.03902 11.1678 9.04438 11.2514 9.0665C11.3351 9.08862 11.4136 9.12707 11.4823 9.17964C11.5511 9.23221 11.6088 9.29787 11.652 9.37282C11.6953 9.44777 11.7233 9.53054 11.7345 9.61636C11.7456 9.70219 11.7397 9.78937 11.717 9.87289C11.6944 9.95642 11.6554 10.0346 11.6024 10.103C11.5493 10.1714 11.4833 10.2287 11.4081 10.2714L10.6875 10.6875L11.4081 11.1036C11.4833 11.1463 11.5493 11.2036 11.6024 11.272C11.6554 11.3404 11.6944 11.4186 11.717 11.5021C11.7397 11.5856 11.7456 11.6728 11.7345 11.7586C11.7233 11.8445 11.6953 11.9272 11.652 12.0022C11.6088 12.0771 11.5511 12.1428 11.4823 12.1954C11.4136 12.2479 11.3351 12.2864 11.2514 12.3085C11.1678 12.3306 11.0806 12.336 10.9948 12.3243C10.9091 12.3125 10.8265 12.284 10.7518 12.2402L10.0312 11.8241V12.6562C10.0312 12.8303 9.96211 12.9972 9.83904 13.1203C9.71597 13.2434 9.54905 13.3125 9.375 13.3125C9.20095 13.3125 9.03403 13.2434 8.91096 13.1203C8.78789 12.9972 8.71875 12.8303 8.71875 12.6562V11.8241L7.99819 12.2402C7.92353 12.284 7.84094 12.3125 7.75519 12.3243C7.66945 12.336 7.58223 12.3306 7.49855 12.3085C7.41488 12.2864 7.33641 12.2479 7.26766 12.1954C7.19891 12.1428 7.14124 12.0771 7.09797 12.0022C7.05469 11.9272 7.02667 11.8445 7.01552 11.7586C7.00436 11.6728 7.01029 11.5856 7.03297 11.5021C7.05564 11.4186 7.09462 11.3404 7.14764 11.272C7.20067 11.2036 7.2667 11.1463 7.34194 11.1036L8.0625 10.6875L7.34194 10.2714C7.19244 10.1838 7.08368 10.0406 7.03938 9.87304C6.99509 9.7055 7.01886 9.52725 7.10551 9.37717C7.19216 9.22709 7.33465 9.11738 7.50189 9.07198C7.66913 9.02657 7.84754 9.04916 7.99819 9.13481L8.71875 9.55087V8.71875C8.71875 8.5447 8.78789 8.37778 8.91096 8.25471C9.03403 8.13164 9.20095 8.0625 9.375 8.0625C9.54905 8.0625 9.71597 8.13164 9.83904 8.25471C9.96211 8.37778 10.0312 8.5447 10.0312 8.71875ZM7.40625 14.625H13.9688C14.1428 14.625 14.3097 14.6941 14.4328 14.8172C14.5559 14.9403 14.625 15.1072 14.625 15.2812C14.625 15.4553 14.5559 15.6222 14.4328 15.7453C14.3097 15.8684 14.1428 15.9375 13.9688 15.9375H7.40625C7.2322 15.9375 7.06528 15.8684 6.94221 15.7453C6.81914 15.6222 6.75 15.4553 6.75 15.2812C6.75 15.1072 6.81914 14.9403 6.94221 14.8172C7.06528 14.6941 7.2322 14.625 7.40625 14.625ZM7.40625 17.25H13.9688C14.1428 17.25 14.3097 17.3191 14.4328 17.4422C14.5559 17.5653 14.625 17.7322 14.625 17.9062C14.625 18.0803 14.5559 18.2472 14.4328 18.3703C14.3097 18.4934 14.1428 18.5625 13.9688 18.5625H7.40625C7.2322 18.5625 7.06528 18.4934 6.94221 18.3703C6.81914 18.2472 6.75 18.0803 6.75 17.9062C6.75 17.7322 6.81914 17.5653 6.94221 17.4422C7.06528 17.3191 7.2322 17.25 7.40625 17.25Z" fill="#00693B"/>
</svg>
