<svg width="24" height="24" viewBox="0 0 24 24" fill="none" xmlns="http://www.w3.org/2000/svg">
<path d="M10.3438 8.71875C10.3438 8.5447 10.2746 8.37778 10.1515 8.25471C10.0285 8.13164 9.86155 8.0625 9.6875 8.0625C9.51345 8.0625 9.34653 8.13164 9.22346 8.25471C9.10039 8.37778 9.03125 8.5447 9.03125 8.71875V9.55087L8.31069 9.13481C8.23603 9.09104 8.15344 9.06247 8.06769 9.05075C7.98195 9.03902 7.89473 9.04438 7.81105 9.0665C7.72738 9.08862 7.64891 9.12707 7.58016 9.17964C7.51141 9.23221 7.45374 9.29787 7.41047 9.37282C7.36719 9.44777 7.33917 9.53054 7.32802 9.61636C7.31686 9.70219 7.32279 9.78937 7.34547 9.87289C7.36814 9.95641 7.40712 10.0346 7.46014 10.103C7.51317 10.1714 7.5792 10.2287 7.65444 10.2714L8.375 10.6875L7.65444 11.1036C7.5792 11.1463 7.51317 11.2036 7.46014 11.272C7.40712 11.3404 7.36814 11.4186 7.34547 11.5021C7.32279 11.5856 7.31686 11.6728 7.32802 11.7586C7.33917 11.8445 7.36719 11.9272 7.41047 12.0022C7.45374 12.0771 7.51141 12.1428 7.58016 12.1954C7.64891 12.2479 7.72738 12.2864 7.81105 12.3085C7.89473 12.3306 7.98195 12.336 8.06769 12.3243C8.15344 12.3125 8.23603 12.284 8.31069 12.2402L9.03125 11.8241V12.6562C9.03125 12.8303 9.10039 12.9972 9.22346 13.1203C9.34653 13.2434 9.51345 13.3125 9.6875 13.3125C9.86155 13.3125 10.0285 13.2434 10.1515 13.1203C10.2746 12.9972 10.3438 12.8303 10.3438 12.6562V11.8241L11.0643 12.2402C11.139 12.284 11.2216 12.3125 11.3073 12.3243C11.3931 12.336 11.4803 12.3306 11.5639 12.3085C11.6476 12.2864 11.7261 12.2479 11.7948 12.1954C11.8636 12.1428 11.9213 12.0771 11.9645 12.0022C12.0078 11.9272 12.0358 11.8445 12.047 11.7586C12.0581 11.6728 12.0522 11.5856 12.0295 11.5021C12.0069 11.4186 11.9679 11.3404 11.9149 11.272C11.8618 11.2036 11.7958 11.1463 11.7206 11.1036L11 10.6875L11.7206 10.2714C11.7958 10.2287 11.8618 10.1714 11.9149 10.103C11.9679 10.0346 12.0069 9.95641 12.0295 9.87289C12.0522 9.78937 12.0581 9.70219 12.047 9.61636C12.0358 9.53054 12.0078 9.44777 11.9645 9.37282C11.9213 9.29787 11.8636 9.23221 11.7948 9.17964C11.7261 9.12707 11.6476 9.08862 11.5639 9.0665C11.4803 9.04438 11.3931 9.03902 11.3073 9.05075C11.2216 9.06247 11.139 9.09104 11.0643 9.13481L10.3438 9.55087V8.71875ZM7.71875 14.625C7.5447 14.625 7.37778 14.6941 7.25471 14.8172C7.13164 14.9403 7.0625 15.1072 7.0625 15.2812C7.0625 15.4553 7.13164 15.6222 7.25471 15.7453C7.37778 15.8684 7.5447 15.9375 7.71875 15.9375H14.2812C14.4553 15.9375 14.6222 15.8684 14.7453 15.7453C14.8684 15.6222 14.9375 15.4553 14.9375 15.2812C14.9375 15.1072 14.8684 14.9403 14.7453 14.8172C14.6222 14.6941 14.4553 14.625 14.2812 14.625H7.71875ZM7.71875 17.25C7.5447 17.25 7.37778 17.3191 7.25471 17.4422C7.13164 17.5653 7.0625 17.7322 7.0625 17.9062C7.0625 18.0803 7.13164 18.2472 7.25471 18.3703C7.37778 18.4934 7.5447 18.5625 7.71875 18.5625H14.2812C14.4553 18.5625 14.6222 18.4934 14.7453 18.3703C14.8684 18.2472 14.9375 18.0803 14.9375 17.9062C14.9375 17.7322 14.8684 17.5653 14.7453 17.4422C14.6222 17.3191 14.4553 17.25 14.2812 17.25H7.71875Z" fill="#363445"/>
<path d="M19.875 19.875V7.40625L13.9688 1.5H6.75C6.05381 1.5 5.38613 1.77656 4.89384 2.26884C4.40156 2.76113 4.125 3.42881 4.125 4.125V19.875C4.125 20.5712 4.40156 21.2389 4.89384 21.7312C5.38613 22.2234 6.05381 22.5 6.75 22.5H17.25C17.9462 22.5 18.6139 22.2234 19.1062 21.7312C19.5984 21.2389 19.875 20.5712 19.875 19.875ZM13.9688 5.4375C13.9688 5.95964 14.1762 6.4604 14.5454 6.82962C14.9146 7.19883 15.4154 7.40625 15.9375 7.40625H18.5625V19.875C18.5625 20.2231 18.4242 20.5569 18.1781 20.8031C17.9319 21.0492 17.5981 21.1875 17.25 21.1875H6.75C6.4019 21.1875 6.06806 21.0492 5.82192 20.8031C5.57578 20.5569 5.4375 20.2231 5.4375 19.875V4.125C5.4375 3.7769 5.57578 3.44306 5.82192 3.19692C6.06806 2.95078 6.4019 2.8125 6.75 2.8125H13.9688V5.4375Z" fill="#363445"/>
</svg>
