<svg width="24" height="24" viewBox="0 0 24 24" fill="none" xmlns="http://www.w3.org/2000/svg">
<path d="M21.5625 6.05624C21.3097 5.79076 21.0057 5.57916 20.669 5.43416C20.3323 5.28916 19.9697 5.21376 19.6031 5.21249H17.4281V4.13436C17.4281 3.70173 17.2563 3.28682 16.9503 2.9809C16.6444 2.67498 16.2295 2.50312 15.7969 2.50312H8.25C8.03187 2.49684 7.8147 2.5344 7.61134 2.61357C7.40799 2.69274 7.22258 2.8119 7.06611 2.964C6.90963 3.11611 6.78527 3.29806 6.70037 3.49909C6.61548 3.70012 6.57178 3.91614 6.57188 4.13436V5.21249H4.40625C3.68519 5.21249 2.99367 5.49893 2.4838 6.00879C1.97394 6.51866 1.6875 7.21018 1.6875 7.93124V18.7875C1.68997 19.5053 1.97622 20.193 2.48379 20.7006C2.99136 21.2081 3.67906 21.4944 4.39688 21.4969H19.6031C20.3209 21.4944 21.0086 21.2081 21.5162 20.7006C22.0238 20.193 22.31 19.5053 22.3125 18.7875V7.93124C22.3115 7.23331 22.0431 6.5623 21.5625 6.05624ZM7.65937 4.13436C7.65504 4.05651 7.6675 3.97863 7.69592 3.90602C7.72433 3.8334 7.76803 3.76774 7.82405 3.7135C7.88007 3.65926 7.9471 3.6177 8.02059 3.59165C8.09409 3.56559 8.17232 3.55565 8.25 3.56249H15.8438C15.988 3.56249 16.1263 3.61978 16.2282 3.72175C16.3302 3.82372 16.3875 3.96203 16.3875 4.10624V5.21249H7.65937V4.13436ZM21.225 18.7875C21.2275 19.0025 21.1874 19.2159 21.1071 19.4153C21.0269 19.6148 20.9079 19.7964 20.7572 19.9498C20.6065 20.1031 20.4269 20.2251 20.2289 20.3088C20.0308 20.3925 19.8181 20.4363 19.6031 20.4375H4.39688C3.96749 20.435 3.55638 20.2634 3.25276 19.9597C2.94913 19.6561 2.77746 19.245 2.775 18.8156V12.2531C3.12928 12.6151 3.55224 12.9026 4.01908 13.099C4.48593 13.2954 4.98728 13.3967 5.49375 13.3969H5.56875V14.7C5.56874 14.814 5.59136 14.927 5.63529 15.0322C5.67922 15.1375 5.74359 15.233 5.82468 15.3132C5.90576 15.3934 6.00195 15.4568 6.10768 15.4995C6.21341 15.5423 6.32657 15.5637 6.44063 15.5625H7.95937C8.07264 15.5625 8.1848 15.5402 8.28944 15.4968C8.39408 15.4535 8.48916 15.39 8.56925 15.3099C8.64934 15.2298 8.71288 15.1347 8.75622 15.0301C8.79957 14.9254 8.82187 14.8133 8.82187 14.7V13.3594H15.3844V14.6625C15.3868 14.8921 15.4798 15.1115 15.643 15.2729C15.8063 15.4344 16.0266 15.525 16.2563 15.525H17.775C18.0037 15.525 18.2231 15.4341 18.3849 15.2724C18.5466 15.1106 18.6375 14.8912 18.6375 14.6625V13.35C19.1302 13.3418 19.6165 13.2366 20.0685 13.0403C20.5205 12.844 20.9295 12.5606 21.2719 12.2062L21.225 18.7875ZM6.65625 14.4469V11.1844H7.74375V14.4469H6.65625ZM16.425 14.4469V11.1844H17.5125V14.4469H16.425ZM21.225 9.58124C21.2178 10.2869 20.9355 10.9619 20.4383 11.4626C19.9411 11.9633 19.2681 12.2503 18.5625 12.2625V10.9687C18.5625 10.7391 18.4719 10.5188 18.3105 10.3555C18.149 10.1923 17.9296 10.0993 17.7 10.0969H16.2094C15.9781 10.0969 15.7564 10.1887 15.5929 10.3522C15.4294 10.5157 15.3375 10.7375 15.3375 10.9687V12.2719H8.775V10.9687C8.76845 10.7518 8.68123 10.5451 8.53039 10.3891C8.37956 10.2331 8.17595 10.1389 7.95937 10.125H6.44063C6.20939 10.125 5.98762 10.2168 5.82412 10.3804C5.66061 10.5439 5.56875 10.7656 5.56875 10.9969V12.3H5.49375C4.77754 12.3 4.09024 12.0175 3.58118 11.5137C3.07212 11.0099 2.78241 10.3255 2.775 9.60936V7.93124C2.77499 7.50023 2.94557 7.08673 3.24946 6.78107C3.55336 6.47542 3.96587 6.30247 4.39688 6.29999H19.6031C20.0341 6.30247 20.4466 6.47542 20.7505 6.78107C21.0544 7.08673 21.225 7.50023 21.225 7.93124V9.58124Z" fill="#363445"/>
</svg>
