<svg width="24" height="24" viewBox="0 0 24 24" fill="none" xmlns="http://www.w3.org/2000/svg">
<path d="M13.9995 2.5H9.99952C8.24106 2.50311 6.53261 3.08551 5.13841 4.15714C3.7442 5.22876 2.74191 6.72989 2.28655 8.42837C1.8312 10.1269 1.94814 11.9281 2.6193 13.5534C3.29047 15.1787 4.47845 16.5377 5.99952 17.42V20.5C5.99982 20.6744 6.04573 20.8457 6.1327 20.9969C6.21967 21.1481 6.34467 21.2739 6.49529 21.3618C6.64591 21.4498 6.81691 21.4968 6.99132 21.4982C7.16573 21.4997 7.33748 21.4555 7.48952 21.37L12.6295 18.5H13.9995C16.1213 18.5 18.1561 17.6571 19.6564 16.1569C21.1567 14.6566 21.9995 12.6217 21.9995 10.5C21.9995 8.37827 21.1567 6.34344 19.6564 4.84315C18.1561 3.34285 16.1213 2.5 13.9995 2.5ZM13.9995 17H12.2395L7.49952 19.65V16.56L6.74952 16.12C5.50714 15.4076 4.53529 14.3042 3.98541 12.9818C3.43552 11.6595 3.33849 10.1923 3.70942 8.80904C4.08035 7.42576 4.89841 6.20402 6.03614 5.33417C7.17387 4.46433 8.56738 3.99524 9.99952 4H13.9995C15.7234 4 17.3767 4.68482 18.5957 5.90381C19.8147 7.12279 20.4995 8.77609 20.4995 10.5C20.4995 12.2239 19.8147 13.8772 18.5957 15.0962C17.3767 16.3152 15.7234 17 13.9995 17Z" fill="#363445"/>
<path d="M8 11.25C8.41421 11.25 8.75 10.9142 8.75 10.5C8.75 10.0858 8.41421 9.75 8 9.75C7.58579 9.75 7.25 10.0858 7.25 10.5C7.25 10.9142 7.58579 11.25 8 11.25Z" fill="#363445"/>
<path d="M12 11.25C12.4142 11.25 12.75 10.9142 12.75 10.5C12.75 10.0858 12.4142 9.75 12 9.75C11.5858 9.75 11.25 10.0858 11.25 10.5C11.25 10.9142 11.5858 11.25 12 11.25Z" fill="#363445"/>
<path d="M16 11.25C16.4142 11.25 16.75 10.9142 16.75 10.5C16.75 10.0858 16.4142 9.75 16 9.75C15.5858 9.75 15.25 10.0858 15.25 10.5C15.25 10.9142 15.5858 11.25 16 11.25Z" fill="#363445"/>
</svg>
