<svg width="24" height="24" viewBox="0 0 24 24" fill="none" xmlns="http://www.w3.org/2000/svg">
<path d="M9.5 20.5H14.5C14.5 21.163 14.2366 21.7989 13.7678 22.2678C13.2989 22.7366 12.663 23 12 23C11.337 23 10.7011 22.7366 10.2322 22.2678C9.76339 21.7989 9.5 21.163 9.5 20.5Z" fill="#00693B"/>
<path d="M21.0005 17.7C20.6893 17.4816 20.4358 17.191 20.2616 16.8531C20.0874 16.5152 19.9978 16.1401 20.0005 15.76V11C19.9992 9.22746 19.4092 7.50554 18.3232 6.10463C17.2372 4.70371 15.7167 3.70314 14.0005 3.26C14.0103 3.17361 14.0103 3.08639 14.0005 3C14.0005 2.46957 13.7898 1.96086 13.4147 1.58579C13.0396 1.21071 12.5309 1 12.0005 1C11.47 1 10.9613 1.21071 10.5863 1.58579C10.2112 1.96086 10.0005 2.46957 10.0005 3C9.99065 3.08639 9.99065 3.17361 10.0005 3.26C8.28422 3.70314 6.76373 4.70371 5.67775 6.10463C4.59177 7.50554 4.0018 9.22746 4.00048 11V15.72C4.00446 16.1164 3.90852 16.5074 3.72151 16.857C3.5345 17.2065 3.26246 17.5033 2.93048 17.72C2.79151 17.8115 2.67757 17.9363 2.59899 18.083C2.52041 18.2296 2.47968 18.3936 2.48048 18.56V19C2.48048 19.2652 2.58584 19.5196 2.77337 19.7071C2.96091 19.8946 3.21526 20 3.48048 20H20.4805C20.7457 20 21.0001 19.8946 21.1876 19.7071C21.3751 19.5196 21.4805 19.2652 21.4805 19V18.53C21.4764 18.3625 21.4303 18.1987 21.3464 18.0537C21.2626 17.9087 21.1436 17.7871 21.0005 17.7ZM18.4805 18.5H4.31048C4.6876 18.142 4.98766 17.7108 5.19228 17.2328C5.3969 16.7547 5.50178 16.24 5.50048 15.72V11C5.50135 10.6651 5.52809 10.3308 5.58048 10V9.83C5.63708 9.52194 5.71391 9.21795 5.81048 8.92L5.87048 8.76C5.97993 8.46122 6.11026 8.1705 6.26048 7.89C6.41423 7.6284 6.58111 7.37474 6.76048 7.13L6.92048 7C7.10519 6.76349 7.30923 6.54273 7.53048 6.34L7.66048 6.22C8.84953 5.13926 10.3987 4.54044 12.0055 4.54044C13.6123 4.54044 15.1614 5.13926 16.3505 6.22L16.4705 6.33C16.6926 6.54212 16.8997 6.76933 17.0905 7.01L17.1905 7.15C17.381 7.39247 17.5516 7.64998 17.7005 7.92C17.8507 8.2005 17.981 8.49122 18.0905 8.79L18.1505 8.95C18.2471 9.24795 18.3239 9.55194 18.3805 9.86V10.03C18.4333 10.3607 18.46 10.6951 18.4605 11.03V15.79C18.4609 16.2993 18.5618 16.8034 18.7574 17.2736C18.953 17.7438 19.2395 18.1708 19.6005 18.53L18.4805 18.5Z" fill="#00693B"/>
<path d="M9.5 20.5H14.5C14.5 21.163 14.2366 21.7989 13.7678 22.2678C13.2989 22.7366 12.663 23 12 23C11.337 23 10.7011 22.7366 10.2322 22.2678C9.76339 21.7989 9.5 21.163 9.5 20.5Z" fill="#00693B"/>
<path d="M21.0005 17.7C20.6893 17.4816 20.4358 17.191 20.2616 16.8531C20.0874 16.5152 19.9978 16.1401 20.0005 15.76V11C19.9992 9.22746 19.4092 7.50554 18.3232 6.10463C17.2372 4.70371 15.7167 3.70314 14.0005 3.26C14.0103 3.17361 14.0103 3.08639 14.0005 3C14.0005 2.46957 13.7898 1.96086 13.4147 1.58579C13.0396 1.21071 12.5309 1 12.0005 1C11.47 1 10.9613 1.21071 10.5863 1.58579C10.2112 1.96086 10.0005 2.46957 10.0005 3C9.99065 3.08639 9.99065 3.17361 10.0005 3.26C8.28422 3.70314 6.76373 4.70371 5.67775 6.10463C4.59177 7.50554 4.0018 9.22746 4.00048 11V15.72C4.00446 16.1164 3.90852 16.5074 3.72151 16.857C3.5345 17.2065 3.26246 17.5033 2.93048 17.72C2.79151 17.8115 2.67757 17.9363 2.59899 18.083C2.52041 18.2296 2.47968 18.3936 2.48048 18.56V19C2.48048 19.2652 2.58584 19.5196 2.77337 19.7071C2.96091 19.8946 3.21526 20 3.48048 20H20.4805C20.7457 20 21.0001 19.8946 21.1876 19.7071C21.3751 19.5196 21.4805 19.2652 21.4805 19V18.53C21.4764 18.3625 21.4303 18.1987 21.3464 18.0537C21.2626 17.9087 21.1436 17.7871 21.0005 17.7Z" fill="#00693B"/>
</svg>
