<svg width="24" height="24" viewBox="0 0 24 24" fill="none" xmlns="http://www.w3.org/2000/svg">
<path d="M13.9995 2.5H9.99952C8.24106 2.50311 6.53261 3.08551 5.13841 4.15714C3.7442 5.22876 2.74191 6.72989 2.28655 8.42837C1.8312 10.1269 1.94814 11.9281 2.6193 13.5534C3.29047 15.1787 4.47845 16.5377 5.99952 17.42V20.5C5.99982 20.6744 6.04573 20.8457 6.1327 20.9969C6.21967 21.1481 6.34467 21.2739 6.49529 21.3618C6.64591 21.4498 6.81691 21.4968 6.99132 21.4982C7.16573 21.4997 7.33748 21.4555 7.48952 21.37L12.6295 18.5H13.9995C16.1213 18.5 18.1561 17.6571 19.6564 16.1569C21.1567 14.6566 21.9995 12.6217 21.9995 10.5C21.9995 8.37827 21.1567 6.34344 19.6564 4.84315C18.1561 3.34285 16.1213 2.5 13.9995 2.5ZM7.99952 9.5C8.1973 9.5 8.39064 9.55865 8.55509 9.66853C8.71954 9.77841 8.84771 9.93459 8.9234 10.1173C8.99909 10.3 9.01889 10.5011 8.98031 10.6951C8.94172 10.8891 8.84648 11.0673 8.70663 11.2071C8.56678 11.347 8.38859 11.4422 8.19461 11.4808C8.00063 11.5194 7.79956 11.4996 7.61684 11.4239C7.43411 11.3482 7.27793 11.22 7.16805 11.0556C7.05817 10.8911 6.99952 10.6978 6.99952 10.5C6.99952 10.2348 7.10488 9.98043 7.29241 9.79289C7.47995 9.60536 7.7343 9.5 7.99952 9.5ZM11.9995 11.5C11.8017 11.5 11.6084 11.4414 11.444 11.3315C11.2795 11.2216 11.1513 11.0654 11.0756 10.8827C11 10.7 10.9802 10.4989 11.0187 10.3049C11.0573 10.1109 11.1526 9.93275 11.2924 9.79289C11.4323 9.65304 11.6104 9.5578 11.8044 9.51921C11.9984 9.48063 12.1995 9.50043 12.3822 9.57612C12.5649 9.65181 12.7211 9.77998 12.831 9.94443C12.9409 10.1089 12.9995 10.3022 12.9995 10.5C12.9995 10.7652 12.8942 11.0196 12.7066 11.2071C12.5191 11.3946 12.2647 11.5 11.9995 11.5ZM15.9995 11.5C15.8017 11.5 15.6084 11.4414 15.444 11.3315C15.2795 11.2216 15.1513 11.0654 15.0756 10.8827C15 10.7 14.9802 10.4989 15.0187 10.3049C15.0573 10.1109 15.1526 9.93275 15.2924 9.79289C15.4323 9.65304 15.6104 9.5578 15.8044 9.51921C15.9984 9.48063 16.1995 9.50043 16.3822 9.57612C16.5649 9.65181 16.7211 9.77998 16.831 9.94443C16.9409 10.1089 16.9995 10.3022 16.9995 10.5C16.9995 10.7652 16.8942 11.0196 16.7066 11.2071C16.5191 11.3946 16.2647 11.5 15.9995 11.5Z" fill="#00693B"/>
</svg>
